<?xml version="1.0" standalone="no"?>
<!DOCTYPE svg PUBLIC "-//W3C//DTD SVG 20010904//EN"
 "http://www.w3.org/TR/2001/REC-SVG-20010904/DTD/svg10.dtd">
<svg version="1.0" xmlns="http://www.w3.org/2000/svg"
 width="225.000000pt" height="225.000000pt" viewBox="0 0 225.000000 225.000000"
 preserveAspectRatio="xMidYMid meet">
<metadata>
Created by potrace 1.16, written by Peter Selinger 2001-2019
</metadata>
<g transform="translate(0.000000,225.000000) scale(0.100000,-0.100000)"
fill="#000000" stroke="none">
<path d="M1247 2234 c-326 -59 -593 -312 -674 -640 -22 -93 -22 -295 0 -387
24 -95 71 -205 116 -270 l39 -55 -69 -68 c-65 -65 -69 -67 -87 -51 -10 9 -25
17 -33 17 -8 0 -130 -116 -271 -257 -269 -272 -278 -284 -263 -355 10 -42 107
-144 152 -159 77 -25 87 -18 366 259 141 141 257 263 257 271 0 8 -8 23 -17
33 -16 18 -14 22 51 87 l68 68 66 -44 c73 -48 185 -94 277 -114 85 -19 284
-16 369 5 319 77 567 331 637 651 7 33 13 112 13 175 0 63 -6 142 -13 175 -98
449 -533 741 -984 659z m343 -79 c140 -33 296 -131 399 -250 137 -159 207
-385 182 -589 -23 -186 -95 -332 -230 -466 -99 -98 -166 -140 -286 -182 -216
-74 -454 -51 -650 64 -88 52 -227 191 -278 278 -78 135 -118 325 -99 472 24
184 88 321 211 450 119 125 256 202 416 232 94 18 237 14 335 -9z m-1094
-1617 c27 -29 58 -63 69 -76 l19 -23 -179 -179 c-210 -210 -208 -209 -286
-131 -31 30 -49 57 -49 71 0 17 50 74 182 207 100 101 185 183 188 183 3 0 28
-24 56 -52z"/>
<path d="M1325 2080 c-84 -10 -169 -36 -245 -76 -108 -56 -144 -101 -100 -124
17 -9 28 -5 63 18 113 78 222 113 355 113 171 1 309 -57 432 -180 43 -44 89
-102 108 -138 63 -120 88 -285 61 -415 -6 -29 -30 -93 -54 -143 -71 -148 -193
-254 -357 -312 -104 -37 -260 -39 -366 -4 -223 73 -388 264 -426 492 -8 48
-27 64 -56 49 -19 -10 -21 -17 -15 -53 44 -286 258 -513 538 -571 281 -58 568
66 722 314 15 24 41 80 58 125 24 66 31 100 35 192 6 138 -13 230 -70 346 -58
116 -180 237 -298 295 -129 64 -257 88 -385 72z"/>
<path d="M826 1768 c-45 -70 -87 -179 -100 -264 -5 -30 -3 -44 8 -53 33 -28
48 -9 72 85 24 98 38 130 91 211 39 59 38 93 -2 93 -18 0 -34 -16 -69 -72z"/>
</g>
</svg>
