<?xml version="1.0" standalone="no"?>
<!DOCTYPE svg PUBLIC "-//W3C//DTD SVG 20010904//EN"
 "http://www.w3.org/TR/2001/REC-SVG-20010904/DTD/svg10.dtd">
<svg version="1.0" xmlns="http://www.w3.org/2000/svg"
 width="128.000000pt" height="128.000000pt" viewBox="0 0 128.000000 128.000000"
 preserveAspectRatio="xMidYMid meet">
<metadata>
Created by potrace 1.16, written by Peter Selinger 2001-2019
</metadata>
<g transform="translate(0.000000,128.000000) scale(0.100000,-0.100000)"
fill="#000000" stroke="none">
<path d="M320 1248 c-19 -16 -64 -50 -100 -76 -38 -28 -84 -74 -112 -112 -26
-36 -60 -81 -76 -100 l-30 -35 2 -165 c1 -124 5 -175 17 -207 16 -40 15 -43
-2 -59 -19 -17 -27 -64 -11 -64 5 0 17 9 26 19 10 11 25 17 33 14 26 -10 32
18 13 61 -42 98 -51 224 -24 330 15 59 71 164 114 215 19 22 22 23 37 8 25
-25 34 -104 16 -158 -18 -58 -4 -121 32 -145 22 -15 25 -23 25 -80 0 -131 75
-240 203 -294 63 -27 59 -19 61 -148 l1 -44 -55 7 c-70 9 -168 46 -223 84 -23
16 -66 54 -95 85 -30 31 -57 56 -62 56 -18 0 -21 -22 -7 -44 15 -22 13 -25
-44 -82 -46 -45 -59 -65 -59 -88 0 -30 1 -29 72 41 l73 71 47 -38 47 -38 -27
-25 c-15 -14 -38 -27 -52 -29 -18 -2 -24 -9 -23 -24 1 -14 -21 -43 -67 -89
-39 -38 -70 -75 -70 -82 0 -33 41 -4 154 107 l122 120 42 -20 c22 -11 46 -20
52 -20 21 0 8 -17 -81 -105 -85 -85 -88 -90 -63 -93 19 -3 36 6 63 31 20 19
45 37 56 39 11 2 21 12 23 24 2 12 17 34 35 51 31 29 34 30 111 25 l78 -4 -83
-84 c-70 -71 -80 -84 -60 -84 12 0 35 8 49 19 15 10 36 20 47 22 11 3 20 12
20 21 0 29 93 115 131 123 18 3 69 23 111 45 43 21 81 36 85 32 12 -12 -128
-145 -164 -156 -24 -8 -33 -17 -33 -33 0 -12 -11 -33 -24 -47 l-24 -26 29 0
c22 0 41 12 74 45 25 26 53 45 66 45 26 0 46 22 39 42 -3 8 1 21 10 28 12 10
15 10 15 -3 0 -9 4 -19 10 -22 16 -10 50 14 50 37 0 17 -5 19 -26 15 l-26 -5
21 21 21 22 42 -43 43 -42 -70 -70 c-65 -65 -68 -70 -43 -70 20 0 46 18 93 61
54 51 68 59 80 49 8 -7 13 -16 10 -20 -3 -4 5 -20 16 -34 17 -21 19 -29 9 -41
-11 -13 -5 -15 36 -15 43 0 53 4 91 42 38 37 43 48 43 86 0 37 -3 43 -17 38
-11 -5 -29 5 -55 30 l-38 38 55 57 c40 42 55 65 55 85 0 27 -3 25 -70 -41
l-70 -70 -42 43 -43 42 21 21 21 20 -1 -23 c-1 -30 29 -36 44 -8 15 28 5 54
-16 46 -14 -5 -15 -4 -5 8 7 8 25 16 39 18 21 2 28 9 30 29 2 15 22 45 48 70
27 26 44 52 44 66 0 28 -11 29 -34 4 -10 -11 -25 -16 -41 -14 -20 4 -25 0 -30
-30 -5 -25 -27 -54 -80 -107 -40 -40 -75 -68 -79 -62 -3 6 9 39 28 74 19 35
40 83 46 108 13 50 101 150 132 150 10 0 18 7 18 15 0 9 9 29 21 44 11 16 19
38 17 50 -3 20 -13 12 -83 -58 l-80 -81 -6 77 -6 78 35 37 c19 20 38 37 41 36
21 -2 31 4 31 20 0 10 16 33 35 52 32 31 50 87 25 78 -5 -1 -48 -41 -95 -87
-47 -47 -86 -83 -88 -80 -1 2 -12 27 -23 54 l-21 50 119 121 c109 111 138 154
105 154 -7 0 -44 -31 -82 -70 -56 -57 -73 -68 -92 -64 -23 6 -28 -2 -23 -35 1
-7 -11 -26 -26 -42 l-26 -28 -38 47 -38 47 71 73 c68 69 70 72 43 72 -20 0
-44 -16 -89 -59 l-62 -59 -48 33 c-46 32 -47 32 -27 50 11 10 20 22 20 27 0
16 -47 8 -64 -11 -16 -17 -19 -18 -59 -2 -31 12 -83 16 -207 17 l-166 2 -34
-30z m349 -20 c43 -10 51 -15 51 -34 0 -13 7 -27 17 -32 13 -8 16 -25 16 -88
-1 -44 3 -87 8 -96 16 -30 52 -21 78 17 15 23 31 35 47 35 12 0 29 9 37 21 14
19 16 18 56 -42 105 -157 113 -388 18 -542 l-24 -39 -30 26 c-17 14 -39 26
-49 26 -9 0 -25 7 -35 16 -17 16 -17 18 2 56 25 49 31 123 9 123 -8 0 -19 -17
-26 -41 -38 -130 -132 -204 -259 -204 -284 0 -367 384 -110 506 96 46 223 23
299 -52 25 -25 60 -90 79 -146 10 -29 37 -22 37 10 -1 63 -82 181 -151 217
-16 8 -31 29 -39 55 -9 28 -23 46 -43 56 -28 15 -30 15 -67 -25 -22 -23 -44
-41 -49 -41 -6 0 -18 14 -26 31 -15 29 -15 32 2 51 9 11 30 27 45 36 36 21 41
36 23 78 -14 33 -13 34 10 34 13 0 46 -5 74 -12z m-119 -46 c-1 -9 -19 -29
-41 -45 -57 -39 -59 -47 -25 -128 6 -13 -3 -22 -36 -38 -54 -26 -101 -71 -135
-128 -19 -33 -28 -41 -38 -33 -22 18 -25 55 -10 106 18 62 3 169 -27 185 -25
13 -18 21 50 63 l57 34 68 -23 c73 -24 107 -23 107 4 0 10 3 21 6 24 10 10 24
-2 24 -21z m203 -776 c-3 -13 -15 -28 -28 -34 -14 -6 -26 -23 -30 -42 -4 -17
-18 -38 -31 -46 -13 -9 -24 -22 -24 -29 0 -16 -38 -50 -47 -42 -3 4 -8 43 -9
86 l-3 79 57 11 c31 7 68 18 82 26 34 20 38 19 33 -9z"/>
<path d="M496 920 c-66 -26 -112 -72 -136 -137 -25 -68 -25 -108 0 -176 21
-57 63 -103 120 -133 51 -27 162 -25 215 3 87 46 129 117 130 218 0 59 -4 78
-28 117 -32 55 -76 92 -136 113 -57 20 -105 18 -165 -5z m185 -53 c63 -33 100
-97 100 -170 0 -119 -79 -198 -198 -198 -73 0 -137 37 -171 101 -32 61 -28
150 10 207 53 80 170 107 259 60z"/>
</g>
</svg>
