<?xml version="1.0" standalone="no"?>
<!DOCTYPE svg PUBLIC "-//W3C//DTD SVG 20010904//EN"
 "http://www.w3.org/TR/2001/REC-SVG-20010904/DTD/svg10.dtd">
<svg version="1.0" xmlns="http://www.w3.org/2000/svg"
 width="400.000000pt" height="400.000000pt" viewBox="0 0 400.000000 400.000000"
 preserveAspectRatio="xMidYMid meet">
<metadata>
Created by potrace 1.16, written by Peter Selinger 2001-2019
</metadata>
<g transform="translate(0.000000,400.000000) scale(0.100000,-0.100000)"
fill="#000000" stroke="none">
<path d="M2050 2970 c-735 -5 -702 -3 -757 -62 -34 -36 -63 -108 -63 -159 0
-65 43 -146 98 -184 l44 -30 623 -5 c610 -5 624 -5 651 -26 93 -69 96 -183 7
-244 l-37 -25 -682 -3 c-577 -2 -684 -5 -694 -17 -16 -19 -3 -54 23 -60 12 -3
323 -4 692 -3 l670 3 48 24 c60 29 102 85 118 155 22 98 -27 198 -121 246 -38
19 -60 20 -637 20 l-599 0 -44 23 c-101 52 -107 195 -10 252 34 19 54 20 719
25 634 5 685 6 695 22 13 22 -11 50 -46 52 -12 0 -327 -1 -698 -4z"/>
<path d="M3057 2969 c-16 -9 -17 -54 -17 -632 l0 -622 -50 56 c-234 265 -654
230 -830 -70 -52 -88 -70 -157 -70 -261 0 -149 50 -268 154 -368 77 -74 160
-117 270 -138 81 -16 91 -16 172 0 47 9 113 31 147 48 79 39 176 133 215 206
64 122 62 86 62 968 0 759 -1 804 -18 813 -11 6 -24 6 -35 0z m-321 -1119
c155 -54 256 -169 290 -332 30 -144 -18 -291 -131 -397 -169 -160 -424 -158
-596 5 -281 269 -92 741 297 743 56 1 99 -5 140 -19z"/>
<path d="M897 2963 c-4 -3 -7 -365 -7 -802 0 -745 1 -801 19 -863 24 -89 73
-168 144 -234 254 -236 655 -161 810 151 38 75 50 131 49 225 0 183 -97 353
-253 443 -209 121 -504 69 -650 -115 -21 -28 -39 -46 -39 -41 0 4 0 277 0 606
0 399 -3 604 -10 617 -10 19 -49 27 -63 13z m686 -1130 c79 -38 170 -124 204
-193 27 -56 53 -153 53 -200 0 -55 -28 -159 -57 -211 -36 -68 -117 -145 -188
-180 -218 -107 -474 -20 -582 198 -33 67 -38 86 -41 167 -5 113 13 181 70 266
49 73 126 134 211 166 53 21 77 24 162 21 88 -2 108 -6 168 -34z"/>
<path d="M1916 992 c-13 -13 -5 -52 13 -62 11 -5 50 -10 86 -10 36 0 75 5 86
10 22 12 25 43 7 57 -14 10 -183 15 -192 5z"/>
</g>
</svg>
